<?xml version="1.0" encoding="UTF-8"?>
<svg width="256px" height="285px" viewBox="0 0 256 285" version="1.1" xmlns="http://www.w3.org/2000/svg" xmlns:xlink="http://www.w3.org/1999/xlink">
    <title>Group@1x</title>
    <g id="Page-1" stroke="none" stroke-width="1" fill="none" fill-rule="evenodd">
        <g id="Slavia-Finalni-Loga-Přehled" transform="translate(-1414.000000, -925.000000)">
            <g id="Group-110" transform="translate(197.512900, 925.645900)">
                <g id="Group" transform="translate(1217.100400, 0.198100)">
                    <polygon id="Fill-52" fill="#C5A664" points="105.5832 25.434 118.9542 15.761 102.4322 15.761 97.2982 0 92.1642 15.761 75.6502 15.761 89.0142 25.431 83.9042 41.118 97.2992 31.427 110.6922 41.118"></polygon>
                    <polygon id="Fill-56" fill="#FFFFFE" points="157.782 190.5036 255.118 190.5036 176.346 133.5156 206.444 41.1176 127.544 98.2106 48.626 41.1176 78.73 133.5336 0 190.5036 97.289 190.5036 127.536 283.3556"></polygon>
                    <polygon id="Fill-58" fill="#D82333" points="103.1505 182.4286 24.9325 182.4286 88.2305 136.6256 63.9835 62.1946 127.5445 108.1776 191.0845 62.1986 166.8455 136.6096 230.1815 182.4286 151.9205 182.4286 127.5355 257.2856"></polygon>
                    <polygon id="Fill-54" fill="#C5A664" points="166.098 25.434 179.469 15.761 162.947 15.761 157.813 0 152.679 15.761 136.165 15.761 149.529 25.431 144.419 41.118 157.814 31.427 171.207 41.118"></polygon>
                </g>
            </g>
        </g>
    </g>
</svg>